<?xml version="1.0" standalone="no"?>
<!DOCTYPE svg PUBLIC "-//W3C//DTD SVG 20010904//EN"
 "http://www.w3.org/TR/2001/REC-SVG-20010904/DTD/svg10.dtd">
<svg version="1.0" xmlns="http://www.w3.org/2000/svg"
 width="512.000000pt" height="512.000000pt" viewBox="0 0 512.000000 512.000000"
 preserveAspectRatio="xMidYMid meet">
<metadata>
Created by potrace 1.11, written by Peter Selinger 2001-2013
</metadata>
<g transform="translate(0.000000,512.000000) scale(0.100000,-0.100000)"
fill="#000000" stroke="none">
<path d="M2300 5099 c-595 -66 -1126 -317 -1541 -729 -148 -147 -223 -238
-335 -407 -92 -137 -214 -376 -268 -524 -102 -278 -163 -630 -154 -889 l3 -94
37 74 c59 120 157 277 243 390 98 129 301 333 415 418 47 35 70 51 53 35 -18
-16 -33 -34 -33 -39 0 -5 32 -87 72 -182 l73 -172 55 -17 c67 -21 222 -22 300
-4 63 15 172 64 189 85 11 12 6 12 -35 0 -143 -43 -317 18 -409 144 -46 63
-69 133 -69 214 0 43 -4 65 -11 62 -5 -3 -3 0 6 8 8 7 21 28 27 47 33 95 104
170 209 219 50 23 71 27 148 27 62 0 103 -5 131 -17 40 -16 45 -16 105 2 78
24 232 55 354 72 117 16 444 16 565 -1 332 -45 651 -154 896 -306 103 -65 144
-114 214 -262 121 -254 109 -235 170 -265 30 -15 125 -60 210 -101 328 -156
577 -336 625 -452 29 -68 20 -115 -37 -202 -110 -164 -297 -320 -463 -384
-162 -63 -147 -62 -880 -65 -610 -3 -680 -5 -785 -23 -211 -36 -409 -115 -595
-238 -130 -87 -328 -282 -411 -408 -64 -97 -132 -221 -124 -228 30 -25 1166
-869 1182 -878 25 -14 303 -7 448 11 451 56 912 252 1270 538 544 437 886
1072 951 1766 14 155 7 458 -15 596 -104 657 -433 1230 -933 1627 -364 290
-771 467 -1233 538 -125 20 -497 28 -620 14z"/>
<path d="M2742 3165 c-95 -43 -149 -127 -107 -168 11 -11 59 -16 203 -22 177
-7 192 -6 235 13 57 25 84 63 71 100 -8 24 -20 30 -119 55 -140 35 -238 43
-283 22z"/>
</g>
</svg>
